<svg id="Layer_1" data-name="Layer 1" xmlns="http://www.w3.org/2000/svg" viewBox="0 0 1080 1080"><defs><style>.cls-1{fill:#fff;}.cls-2{fill:#fe8326;}.cls-3,.cls-4{fill:#ff6724;}.cls-4{font-size:25.87px;font-family:Poppins-Bold, Poppins;font-weight:700;}</style></defs><title>Artboard 1</title><circle class="cls-1" cx="630.65" cy="259.86" r="76.76"/><circle class="cls-1" cx="455.05" cy="259.86" r="76.76"/><path class="cls-2" d="M751.26,724.16q0,86.57-.15,173.13c0,5.08,0,5.14-5.13,5.09-18.72-.21-37.46.24-56.12-.84-63.15-3.71-124-16.85-179.87-47.74C448.69,819.91,403.3,771,374.61,706.93,360.69,675.8,352.47,643.1,348,609.37c-5.5-41.71-6.41-83.62-5.6-125.61.41-21.17,1.11-42.34,1.85-63.5.26-7.37.61-14.73,1-22.09q.48-9.37.94-18.76a56.49,56.49,0,0,0,15.53,37.66c10.46,11.25,23.45,17.84,38.76,18.39,19.08.66,38.19.32,57.29.38,63.29.21,126.58,0,189.88.83,29,.4,55.06,9.86,75.61,31.49,14.66,15.46,22.27,34.32,25.45,55A196.28,196.28,0,0,1,751,552.21q.24,49.74.21,99.48Q751.28,687.93,751.26,724.16Z"/><path class="cls-2" d="M761.17,152.61c-43,0-86-.32-129.06.15a131.51,131.51,0,0,0-30.71,4.34c-21.87,5.57-39.91,17.81-55,34.44-1.48,1.62-2.94,3.26-4.47,5l-.71.78c-1.74-1.92-2.89-3.16-4-4.42-24-27.21-54-40.74-90.44-40.48-42.36.31-84.74.15-127.11.19h-5.09l49.22,48.66c-1.44,2.41-2.49,4.2-3.57,6-14.59,23.68-19.12,49.42-13.34,76.33,15,69.64,91.21,109.25,156.25,76.49,2.41-1.22,3.75-1,5.59,1q9.49,10.34,19.39,20.28c4.18,4.23,8.64,8.15,13.47,12.67a22.82,22.82,0,0,1,2-2.59c9.8-10.23,19.7-20.36,29.4-30.68,2.08-2.21,3.58-2.38,6.23-1a100.17,100.17,0,0,0,40.48,11.68c32.29,2.1,60.44-8.07,84.08-30.06,37.65-35,46.86-92.17,17.42-137.95a8.07,8.07,0,0,1-1-2.12c-.46-1.75.32-3,2-4.62,13.47-13.36,26.81-26.87,40.18-40.33.94-.94,1.81-2,3.19-3.46C763.44,152.74,762.31,152.61,761.17,152.61ZM455.92,331.84c-35.45.65-69.65-27.87-70.17-68.16-.49-39.09,30.12-69.94,68.8-70.11,37.91-.16,68.89,30.73,69,68.83C523.7,299.46,492.33,331.16,455.92,331.84Zm241.73-69.59c.17,37.86-31.38,69.46-69.44,69.58a68.19,68.19,0,0,1-46.27-18.41c-13.61-12.55-22.34-30.37-22.4-49.7a70,70,0,0,1,70-70.62,64.78,64.78,0,0,1,28.39,6.57,70.73,70.73,0,0,1,39.74,62.58Z"/><path class="cls-3" d="M464.8,263.3l-35.61-23.74L438,227.42l50.42,35.47-51.74,37L428.33,288Z"/><path class="cls-3" d="M591.48,263.35,641.88,227,651,239.5,615.41,263l36.74,25.29-8,11.92Z"/><path class="cls-3" d="M751.26,724.16q0,86.57-.15,173.13c0,5.08,0,5.14-5.13,5.09-18.72-.21-37.46.24-56.12-.84-63.15-3.71-124-16.85-179.87-47.74C448.69,819.91,403.3,771,374.61,706.93,360.69,675.8,352.47,643.1,348,609.37c-5.5-41.71-6.41-83.62-5.6-125.61.41-21.17,1.11-42.34,1.85-63.5.26-7.37.61-14.73,1-22.09,73.59,306.91,280.85,293.53,406,253.52Q751.28,687.93,751.26,724.16Z"/><text class="cls-4" transform="translate(435.71 838.19) rotate(38.85)">S</text><text class="cls-4" transform="matrix(0.81, 0.59, -0.59, 0.81, 449.12, 848.97)">u</text><text class="cls-4" transform="matrix(0.84, 0.54, -0.54, 0.84, 464.36, 860.23)">m</text><text class="cls-4" transform="translate(488.84 875.58) rotate(28.81)">p</text><text class="cls-4" transform="matrix(0.89, 0.45, -0.45, 0.89, 505.31, 884.5)">i</text><text class="cls-4" transform="translate(513.15 888.52) rotate(24.59)">u</text><text class="cls-4" transform="translate(530.25 896.31) rotate(21.72)">h</text><text class="cls-4" transform="translate(547.57 903.08) rotate(19.67)">.</text><text class="cls-4" transform="translate(555.51 905.98) rotate(17.77)">c</text><text class="cls-4" transform="translate(571.64 911.12) rotate(15.19)">o</text><text class="cls-4" transform="translate(588.92 915.93) rotate(11.8)">m</text></svg>